<?xml version="1.0" standalone="no"?>
<!DOCTYPE svg PUBLIC "-//W3C//DTD SVG 20010904//EN"
 "http://www.w3.org/TR/2001/REC-SVG-20010904/DTD/svg10.dtd">
<svg version="1.0" xmlns="http://www.w3.org/2000/svg"
 width="128.000000pt" height="128.000000pt" viewBox="0 0 128.000000 128.000000"
 preserveAspectRatio="xMidYMid meet">

<g transform="translate(0.000000,128.000000) scale(0.100000,-0.100000)"
fill="#000000" stroke="none">
<path d="M585 951 c-99 -26 -177 -113 -191 -214 -8 -57 17 -142 54 -186 l29
-35 -57 -37 c-66 -42 -121 -106 -151 -173 l-21 -48 33 -34 c37 -38 44 -37 53
6 9 49 73 136 124 170 107 71 226 77 336 17 69 -38 130 -108 148 -172 16 -57
20 -59 57 -21 l33 34 -25 56 c-31 67 -102 145 -161 176 l-43 23 32 43 c39 51
60 128 51 188 -11 68 -62 144 -121 177 -54 30 -131 43 -180 30z m143 -108 c43
-32 65 -69 70 -121 12 -128 -125 -214 -238 -151 -112 63 -103 231 15 285 40
19 119 12 153 -13z"/>
</g>
</svg>
